<?xml version="1.0" encoding="UTF-8" ?>
<!DOCTYPE svg PUBLIC "-//W3C//DTD SVG 1.1//EN" "http://www.w3.org/Graphics/SVG/1.1/DTD/svg11.dtd">
<svg width="800pt" height="800pt" viewBox="0 0 800 800" version="1.1" xmlns="http://www.w3.org/2000/svg">
<g id="#0172f1ff">
<path fill="#0172f1" opacity="1.00" d=" M 0.00 0.00 L 800.00 0.00 L 800.00 800.00 L 0.00 800.00 L 0.00 0.00 M 192.79 270.73 C 176.94 277.93 164.83 292.47 159.98 309.12 C 155.56 324.00 156.84 340.44 163.35 354.52 C 169.91 368.21 181.49 379.60 195.67 385.23 C 208.16 390.40 222.52 390.96 235.34 386.59 C 251.86 381.52 265.53 368.55 272.18 352.69 C 266.90 352.82 261.48 352.05 256.30 353.03 C 253.45 355.96 251.39 359.59 248.32 362.32 C 235.26 375.00 214.16 378.66 197.90 370.18 C 184.59 363.92 175.24 350.88 172.39 336.58 C 207.30 336.39 242.21 336.67 277.11 336.43 C 278.96 320.82 275.38 304.57 266.49 291.54 C 258.62 280.36 247.25 271.41 233.98 267.68 C 220.53 263.21 205.51 264.68 192.79 270.73 M 448.65 277.65 C 437.06 287.07 431.23 302.23 431.41 316.95 C 431.46 340.01 431.29 363.07 431.50 386.14 C 436.43 386.48 441.38 386.41 446.33 386.28 C 446.35 362.84 446.28 339.41 446.36 315.97 C 446.48 305.30 450.72 293.97 459.94 287.93 C 469.67 281.23 481.85 280.06 493.34 280.19 C 493.46 275.19 493.45 270.18 493.38 265.18 C 477.81 264.89 461.12 267.70 448.65 277.65 M 550.42 266.89 C 542.32 268.51 534.72 272.21 528.06 277.04 C 514.49 286.78 505.63 302.45 503.34 318.91 C 501.48 330.41 503.51 342.34 508.06 352.98 C 515.38 370.23 531.10 383.74 549.37 388.04 C 562.50 391.32 576.69 389.75 588.86 383.85 C 604.36 376.21 616.56 361.88 621.14 345.17 C 624.43 334.19 624.57 322.31 621.51 311.27 C 617.86 296.56 608.24 283.70 595.79 275.22 C 582.54 266.74 565.84 262.88 550.42 266.89 M 388.21 267.71 C 386.83 268.58 387.69 270.58 387.41 271.93 C 387.51 293.30 387.44 314.68 387.45 336.06 C 387.60 344.73 385.68 353.63 380.86 360.94 C 376.01 368.63 367.67 373.93 358.76 375.47 C 352.53 376.04 345.97 376.25 340.09 373.75 C 329.22 369.69 321.08 359.50 319.10 348.12 C 318.02 342.82 318.46 337.37 318.39 332.00 C 318.35 310.57 318.48 289.13 318.33 267.70 C 313.67 267.51 309.01 267.45 304.36 267.74 C 304.43 292.18 304.37 316.61 304.39 341.04 C 304.32 351.93 307.52 363.04 314.39 371.62 C 328.24 390.03 355.89 394.47 375.85 383.88 C 388.84 377.46 397.63 364.25 400.29 350.20 C 402.14 340.57 401.17 330.74 401.41 321.00 C 401.23 303.19 401.75 285.37 401.15 267.57 C 396.83 267.67 392.51 267.35 388.21 267.71 M 167.87 435.88 C 159.18 446.47 155.30 460.45 155.63 474.01 C 155.61 492.02 155.67 510.03 155.60 528.04 C 155.73 529.87 155.15 532.13 156.96 533.33 C 165.35 533.47 173.76 533.57 182.15 533.20 C 182.62 516.14 182.21 499.06 182.35 482.00 C 182.52 475.61 181.68 469.00 183.77 462.83 C 185.20 458.10 187.70 453.69 191.09 450.08 C 199.23 442.05 212.53 440.01 222.65 445.45 C 231.77 449.87 237.33 459.99 237.39 469.98 C 237.55 491.10 237.26 512.24 237.53 533.37 C 246.43 533.43 255.33 533.49 264.23 533.31 C 264.42 516.54 264.21 499.77 264.31 483.00 C 264.23 476.78 264.63 470.53 263.85 464.34 C 262.73 448.91 254.27 434.20 241.46 425.51 C 219.11 409.82 184.72 413.99 167.87 435.88 M 304.19 420.14 C 290.02 425.87 278.53 437.47 272.32 451.36 C 265.65 466.66 265.48 484.72 271.94 500.11 C 276.87 512.19 286.04 522.40 297.28 528.95 C 312.82 537.88 332.73 538.79 348.95 531.13 C 361.74 525.52 371.73 514.83 377.85 502.42 C 369.88 502.12 361.90 502.29 353.92 502.21 C 347.89 501.34 344.43 507.39 339.20 509.17 C 328.62 514.26 315.42 512.92 305.93 506.07 C 299.01 501.55 294.41 494.30 291.89 486.55 C 322.03 486.32 352.18 486.49 382.33 486.47 C 383.72 482.80 383.57 478.83 383.54 474.98 C 383.13 452.19 369.19 429.80 347.96 420.87 C 334.29 414.63 318.09 414.57 304.19 420.14 M 380.23 418.46 C 380.32 428.88 382.91 439.05 384.54 449.29 C 390.71 477.94 398.34 506.44 410.01 533.37 C 422.01 533.41 434.01 533.50 446.00 533.32 C 453.05 515.36 458.43 496.79 462.61 477.96 C 466.93 496.81 471.78 515.75 479.75 533.43 C 491.55 533.39 503.35 533.44 515.16 533.40 C 519.90 522.55 523.33 511.17 526.95 499.90 C 533.59 477.43 539.02 454.61 543.26 431.57 C 543.93 427.19 544.93 422.81 544.64 418.36 C 535.28 418.47 525.93 418.31 516.57 418.50 C 514.74 430.33 512.95 442.18 510.48 453.89 C 506.54 472.58 502.75 491.43 496.06 509.37 C 493.72 503.47 491.86 497.40 490.07 491.32 C 483.19 467.45 478.27 443.06 474.44 418.52 C 466.50 418.35 458.55 418.39 450.61 418.45 C 447.39 441.77 442.56 464.86 436.45 487.60 C 434.28 494.95 432.35 502.42 429.08 509.38 C 425.15 499.85 422.85 489.76 420.21 479.82 C 415.48 459.55 411.64 439.08 408.71 418.47 C 399.21 418.41 389.72 418.34 380.23 418.46 M 564.14 421.21 C 557.32 423.61 551.06 428.23 547.62 434.69 C 542.76 443.28 542.86 453.94 545.78 463.14 C 548.22 470.88 554.23 477.20 561.70 480.28 C 571.67 484.12 582.60 485.13 592.33 489.62 C 599.89 493.23 599.60 505.49 592.20 509.05 C 586.53 511.75 580.01 510.44 573.96 510.73 C 563.74 510.98 553.83 508.26 543.89 506.31 C 543.88 513.70 543.41 521.12 544.15 528.49 C 558.66 532.83 573.89 534.42 588.98 533.34 C 600.38 532.23 613.00 528.77 619.70 518.68 C 623.85 512.99 624.90 505.86 625.32 499.01 C 625.00 490.69 623.34 481.85 617.38 475.61 C 609.44 467.01 597.26 465.28 586.56 462.18 C 582.04 460.70 576.85 460.17 573.31 456.68 C 570.88 454.56 571.15 451.02 571.30 448.12 C 571.42 443.93 575.66 441.34 579.39 440.73 C 592.77 439.29 606.16 441.35 619.31 443.71 C 619.36 436.83 619.54 429.94 619.29 423.06 C 619.07 422.73 618.62 422.05 618.40 421.71 C 610.86 419.15 602.87 418.43 595.00 417.74 C 584.64 417.20 573.96 417.53 564.14 421.21 M 658.40 485.71 C 647.45 488.08 639.22 498.84 639.74 510.02 C 639.85 522.66 651.28 534.08 664.02 533.62 C 676.87 533.92 688.89 522.00 687.80 509.00 C 688.33 499.95 682.43 491.44 674.48 487.50 C 669.57 484.92 663.76 484.96 658.40 485.71 Z" />
<path fill="#0172f1" opacity="1.00" d=" M 203.24 282.24 C 210.09 279.62 217.60 280.01 224.77 280.54 C 244.75 283.71 261.04 301.63 262.84 321.69 C 232.59 321.87 202.34 321.83 172.09 321.71 C 173.50 303.98 186.44 287.88 203.24 282.24 Z" />
<path fill="#0172f1" opacity="1.00" d=" M 557.42 282.84 C 567.66 281.26 578.41 284.09 586.75 290.19 C 596.44 297.20 603.04 308.27 604.77 320.09 C 607.80 337.00 600.41 355.39 586.33 365.30 C 571.71 376.11 549.84 374.83 536.52 362.50 C 526.48 353.74 520.58 340.32 521.22 326.99 C 520.65 306.20 536.49 285.75 557.42 282.84 Z" />
<path fill="#0172f1" opacity="1.00" d=" M 311.26 443.38 C 317.78 440.19 325.33 439.62 332.41 440.92 C 344.97 443.64 355.25 453.81 358.77 466.08 C 339.86 466.49 320.92 466.07 302.00 466.28 C 298.68 466.32 295.36 466.30 292.05 466.07 C 294.72 456.21 301.83 447.47 311.26 443.38 Z" />
</g>
<g id="#fefefeff">
<path fill="#fefefe" opacity="1.00" d=" M 192.79 270.73 C 205.51 264.68 220.53 263.21 233.98 267.68 C 247.25 271.41 258.62 280.36 266.49 291.54 C 275.38 304.57 278.96 320.82 277.11 336.43 C 242.21 336.67 207.30 336.39 172.39 336.58 C 175.24 350.88 184.59 363.92 197.90 370.18 C 214.16 378.66 235.26 375.00 248.32 362.32 C 251.39 359.59 253.45 355.96 256.30 353.03 C 261.48 352.05 266.90 352.82 272.18 352.69 C 265.53 368.55 251.86 381.52 235.34 386.59 C 222.52 390.96 208.16 390.40 195.67 385.23 C 181.49 379.60 169.91 368.21 163.35 354.52 C 156.84 340.44 155.56 324.00 159.98 309.12 C 164.83 292.47 176.94 277.93 192.79 270.73 M 203.24 282.24 C 186.44 287.88 173.50 303.98 172.09 321.71 C 202.34 321.83 232.59 321.87 262.84 321.69 C 261.04 301.63 244.75 283.71 224.77 280.54 C 217.60 280.01 210.09 279.62 203.24 282.24 Z" />
<path fill="#fefefe" opacity="1.00" d=" M 448.65 277.65 C 461.12 267.70 477.81 264.89 493.38 265.18 C 493.45 270.18 493.46 275.19 493.34 280.19 C 481.85 280.06 469.67 281.23 459.94 287.93 C 450.72 293.97 446.48 305.30 446.36 315.97 C 446.28 339.41 446.35 362.84 446.33 386.28 C 441.38 386.41 436.43 386.48 431.50 386.14 C 431.29 363.07 431.46 340.01 431.41 316.95 C 431.23 302.23 437.06 287.07 448.65 277.65 Z" />
<path fill="#fefefe" opacity="1.00" d=" M 550.42 266.89 C 565.84 262.88 582.54 266.74 595.79 275.22 C 608.24 283.70 617.86 296.56 621.51 311.27 C 624.57 322.31 624.43 334.19 621.14 345.17 C 616.56 361.88 604.36 376.21 588.86 383.85 C 576.69 389.75 562.50 391.32 549.37 388.04 C 531.10 383.74 515.38 370.23 508.06 352.98 C 503.51 342.34 501.48 330.41 503.34 318.91 C 505.63 302.45 514.49 286.78 528.06 277.04 C 534.72 272.21 542.32 268.51 550.42 266.89 M 557.42 282.84 C 536.49 285.75 520.65 306.20 521.22 326.99 C 520.58 340.32 526.48 353.74 536.52 362.50 C 549.84 374.83 571.71 376.11 586.33 365.30 C 600.41 355.39 607.80 337.00 604.77 320.09 C 603.04 308.27 596.44 297.20 586.75 290.19 C 578.41 284.09 567.66 281.26 557.42 282.84 Z" />
<path fill="#fefefe" opacity="1.00" d=" M 388.21 267.71 C 392.51 267.35 396.83 267.67 401.15 267.57 C 401.75 285.37 401.23 303.19 401.41 321.00 C 401.17 330.74 402.14 340.57 400.29 350.20 C 397.63 364.25 388.84 377.46 375.85 383.88 C 355.89 394.47 328.24 390.03 314.39 371.62 C 307.52 363.04 304.32 351.93 304.39 341.04 C 304.37 316.61 304.43 292.18 304.36 267.74 C 309.01 267.45 313.67 267.51 318.33 267.70 C 318.48 289.13 318.35 310.57 318.39 332.00 C 318.46 337.37 318.02 342.82 319.10 348.12 C 321.08 359.50 329.22 369.69 340.09 373.75 C 345.97 376.25 352.53 376.04 358.76 375.47 C 367.67 373.93 376.01 368.63 380.86 360.94 C 385.68 353.63 387.60 344.73 387.45 336.06 C 387.44 314.68 387.51 293.30 387.41 271.93 C 387.69 270.58 386.83 268.58 388.21 267.71 Z" />
<path fill="#fefefe" opacity="1.00" d=" M 167.87 435.88 C 184.72 413.99 219.11 409.82 241.46 425.51 C 254.27 434.20 262.73 448.91 263.85 464.34 C 264.63 470.53 264.23 476.78 264.31 483.00 C 264.21 499.77 264.42 516.54 264.23 533.31 C 255.33 533.49 246.43 533.43 237.53 533.37 C 237.26 512.24 237.55 491.10 237.39 469.98 C 237.33 459.99 231.77 449.87 222.65 445.45 C 212.53 440.01 199.23 442.05 191.09 450.08 C 187.70 453.69 185.20 458.10 183.77 462.83 C 181.68 469.00 182.52 475.61 182.35 482.00 C 182.21 499.06 182.62 516.14 182.15 533.20 C 173.76 533.57 165.35 533.47 156.96 533.33 C 155.15 532.13 155.73 529.87 155.60 528.04 C 155.67 510.03 155.61 492.02 155.63 474.01 C 155.30 460.45 159.18 446.47 167.87 435.88 Z" />
<path fill="#fefefe" opacity="1.00" d=" M 304.19 420.14 C 318.09 414.57 334.29 414.63 347.96 420.87 C 369.19 429.80 383.13 452.19 383.54 474.98 C 383.57 478.83 383.72 482.80 382.33 486.47 C 352.18 486.49 322.03 486.32 291.89 486.55 C 294.41 494.30 299.01 501.55 305.93 506.07 C 315.42 512.92 328.62 514.26 339.20 509.17 C 344.43 507.39 347.89 501.34 353.92 502.21 C 361.90 502.29 369.88 502.12 377.85 502.42 C 371.73 514.83 361.74 525.52 348.95 531.13 C 332.73 538.79 312.82 537.88 297.28 528.95 C 286.04 522.40 276.87 512.19 271.94 500.11 C 265.48 484.72 265.65 466.66 272.32 451.36 C 278.53 437.47 290.02 425.87 304.19 420.14 M 311.26 443.38 C 301.83 447.47 294.72 456.21 292.05 466.07 C 295.36 466.30 298.68 466.32 302.00 466.28 C 320.92 466.07 339.86 466.49 358.77 466.08 C 355.25 453.81 344.97 443.64 332.41 440.92 C 325.33 439.62 317.78 440.19 311.26 443.38 Z" />
<path fill="#fefefe" opacity="1.00" d=" M 380.23 418.46 C 389.72 418.34 399.21 418.41 408.71 418.47 C 411.64 439.08 415.48 459.55 420.21 479.82 C 422.85 489.76 425.15 499.85 429.08 509.38 C 432.35 502.42 434.28 494.95 436.45 487.60 C 442.56 464.86 447.39 441.77 450.61 418.45 C 458.55 418.39 466.50 418.35 474.44 418.52 C 478.27 443.06 483.19 467.45 490.07 491.32 C 491.86 497.40 493.72 503.47 496.06 509.37 C 502.75 491.43 506.54 472.58 510.48 453.89 C 512.95 442.18 514.74 430.33 516.57 418.50 C 525.93 418.31 535.28 418.47 544.64 418.36 C 544.93 422.81 543.93 427.19 543.26 431.57 C 539.02 454.61 533.59 477.43 526.95 499.90 C 523.33 511.17 519.90 522.55 515.16 533.40 C 503.35 533.44 491.55 533.39 479.75 533.43 C 471.78 515.75 466.93 496.81 462.61 477.96 C 458.43 496.79 453.05 515.36 446.00 533.32 C 434.01 533.50 422.01 533.41 410.01 533.37 C 398.34 506.44 390.71 477.94 384.54 449.29 C 382.91 439.05 380.32 428.88 380.23 418.46 Z" />
<path fill="#fefefe" opacity="1.00" d=" M 564.14 421.21 C 573.96 417.53 584.64 417.20 595.00 417.74 C 602.87 418.43 610.86 419.15 618.40 421.71 C 618.62 422.05 619.07 422.73 619.29 423.06 C 619.54 429.94 619.36 436.83 619.31 443.71 C 606.16 441.35 592.77 439.29 579.39 440.73 C 575.66 441.34 571.42 443.93 571.30 448.12 C 571.15 451.02 570.88 454.56 573.31 456.68 C 576.85 460.17 582.04 460.70 586.56 462.18 C 597.26 465.28 609.44 467.01 617.38 475.61 C 623.34 481.85 625.00 490.69 625.32 499.01 C 624.90 505.86 623.85 512.99 619.70 518.68 C 613.00 528.77 600.38 532.23 588.98 533.34 C 573.89 534.42 558.66 532.83 544.15 528.49 C 543.41 521.12 543.88 513.70 543.89 506.31 C 553.83 508.26 563.74 510.98 573.96 510.73 C 580.01 510.44 586.53 511.75 592.20 509.05 C 599.60 505.49 599.89 493.23 592.33 489.62 C 582.60 485.13 571.67 484.12 561.70 480.28 C 554.23 477.20 548.22 470.88 545.78 463.14 C 542.86 453.94 542.76 443.28 547.62 434.69 C 551.06 428.23 557.32 423.61 564.14 421.21 Z" />
<path fill="#fefefe" opacity="1.00" d=" M 658.40 485.71 C 663.76 484.96 669.57 484.92 674.48 487.50 C 682.43 491.44 688.33 499.95 687.80 509.00 C 688.89 522.00 676.87 533.92 664.02 533.62 C 651.28 534.08 639.85 522.66 639.74 510.02 C 639.22 498.84 647.45 488.08 658.40 485.71 Z" />
</g>
</svg>
